# xmcd
#
# Track frame offsets: 
#        150
#        20740
#        41177
#        62982
#        90512
#        113692
#        131497
#        155640
#        185205
#        207890
#        225525
#        245655
#        260580
#        285120
#        303087
#
# Disc length: 4345 seconds
#
# Revision: 2
# Processed by: cddbd v1.4PL0 Copyright (c) Steve Scherf et al.
# Submitted via: ExactAudioCopy v0.90a11
#
DISCID=d210f70f
DTITLE=XTC - English Settlement (remaster)
DYEAR=1900
DGENRE=
TTITLE0=Runaways
TTITLE1=Ball and Chain
TTITLE2=Senses Working Overtime
TTITLE3=Jason and the Argonauts
TTITLE4=No Thugs In Our House
TTITLE5=Yacht Dance
TTITLE6=All of a Sudden (It's Too Late)
TTITLE7=Melt The Guns
TTITLE8=Leisure
TTITLE9=It's Nearly Africa
TTITLE10=Knuckle Down
TTITLE11=Fly on the Wall
TTITLE12=Down in the Cockpit
TTITLE13=English Roundabout
TTITLE14=Snowman
EXTD=
EXTT0=
EXTT1=
EXTT2=
EXTT3=
EXTT4=
EXTT5=
EXTT6=
EXTT7=
EXTT8=
EXTT9=
EXTT10=
EXTT11=
EXTT12=
EXTT13=
EXTT14=
PLAYORDER=
